<mxfile host="app.diagrams.net" agent="Mozilla/5.0 (Windows NT 10.0; Win64; x64) AppleWebKit/537.36 (KHTML, like Gecko) Chrome/141.0.0.0 Safari/537.36" version="28.2.8">
  <diagram id="ASMChartTask9" name="Fetch &amp; Decode Cycle">
    <mxGraphModel dx="719" dy="388" grid="1" gridSize="10" guides="1" tooltips="1" connect="1" arrows="1" fold="1" page="1" pageScale="1" pageWidth="827" pageHeight="1169" math="0" shadow="0">
      <root>
        <mxCell id="0" />
        <mxCell id="1" parent="0" />
        <mxCell id="2" value="S_FETCH_1 (000)&#xa;———————&#xa;Mem_Read" style="rounded=0;whiteSpace=wrap;html=1;" parent="1" vertex="1">
          <mxGeometry x="120" y="100" width="160" height="80" as="geometry" />
        </mxCell>
        <mxCell id="3" value="S_FETCH_2 (001)&#xa;———————&#xa;IR_Write&#xa;PC_Write&#xa;PC_Source=00" style="rounded=0;whiteSpace=wrap;html=1;" parent="1" vertex="1">
          <mxGeometry x="120" y="240" width="200" height="100" as="geometry" />
        </mxCell>
        <mxCell id="4" value="S_DECODE (010)&#xa;———————&#xa;(No control signals)" style="rounded=0;whiteSpace=wrap;html=1;" parent="1" vertex="1">
          <mxGeometry x="120" y="400" width="200" height="80" as="geometry" />
        </mxCell>
        <mxCell id="5" value="" style="endArrow=block;rounded=0;html=1;exitX=0.549;exitY=0.981;exitDx=0;exitDy=0;exitPerimeter=0;" parent="1" source="2" edge="1">
          <mxGeometry relative="1" as="geometry">
            <mxPoint x="208" y="240" as="targetPoint" />
          </mxGeometry>
        </mxCell>
        <mxCell id="6" value="" style="endArrow=block;rounded=0;html=1;" parent="1" source="3" target="4" edge="1">
          <mxGeometry relative="1" as="geometry" />
        </mxCell>
        <mxCell id="7" value="" style="endArrow=block;rounded=0;html=1;entryX=1.015;entryY=0.436;entryDx=0;entryDy=0;entryPerimeter=0;" parent="1" source="4" target="2" edge="1">
          <mxGeometry relative="1" as="geometry">
            <Array as="points">
              <mxPoint x="480" y="440" />
              <mxPoint x="480" y="135" />
            </Array>
          </mxGeometry>
        </mxCell>
        <mxCell id="8" value="" style="ellipse;whiteSpace=wrap;html=1;" parent="1" vertex="1">
          <mxGeometry x="195" y="20" width="10" height="10" as="geometry" />
        </mxCell>
        <mxCell id="9" value="Reset" style="endArrow=block;rounded=0;html=1;" parent="1" source="8" target="2" edge="1">
          <mxGeometry relative="1" as="geometry" />
        </mxCell>
      </root>
    </mxGraphModel>
  </diagram>
</mxfile>
